<?xml version="1.0" encoding="UTF-8"?>
<svg xmlns="http://www.w3.org/2000/svg" version="1.1" viewBox="0 0 1920 842.5">
  <defs>
    <style>
      .cls-1 {
        fill: #fff;
      }
    </style>
  </defs>
  <!-- Generator: Adobe Illustrator 28.7.1, SVG Export Plug-In . SVG Version: 1.2.0 Build 142)  -->
  <g>
    <g id="Capa_1">
      <g>
        <g>
          <g>
            <g>
              <path class="cls-1" d="M1069.73,192.09v170.04h-53.93l-.73-1.21-84.29-104.7v105.91h-54.66v-170.04h53.93l85.02,105.67v-105.67h54.66Z"/>
              <path class="cls-1" d="M1284.49,192.09v85.02c0,75.55-46.64,85.02-97.9,85.02s-97.65-9.47-97.65-85.02v-85.02h54.66v85.02c0,40.32,22.1,45.43,42.99,45.43s43.24-5.1,43.24-45.43v-85.02h54.66Z"/>
              <path class="cls-1" d="M1358.36,231.68v25.51h111.01v39.84h-111.01v25.51h121.22v39.6h-175.87v-170.04h175.87v39.6h-121.22Z"/>
              <path class="cls-1" d="M1551.94,362.13l-65.1-170.04h58.54l46.64,121.7,46.4-121.7h58.54l-65.1,170.04h-79.92Z"/>
              <path class="cls-1" d="M1887.5,277.11c0,78.95-46.64,88.66-97.89,88.66s-97.65-9.72-97.65-88.66,46.64-88.66,97.65-88.66,97.89,9.47,97.89,88.66ZM1832.84,277.11c0-42.27-22.11-49.07-43.24-49.07s-43,6.8-43,49.07,22.11,49.07,43,49.07,43.24-7.04,43.24-49.07Z"/>
            </g>
            <g>
              <g>
                <path class="cls-1" d="M1072.56,626.42h-196.44v-227.28h73.05v174.35h123.38v52.92Z"/>
                <path class="cls-1" d="M1158.18,452.06v34.09h148.38v53.25h-148.38v34.09h162.02v52.92h-235.07v-227.28h235.07v52.92h-162.02Z"/>
                <path class="cls-1" d="M1874.36,399.14v227.28h-72.08l-.97-1.62-112.67-139.94v141.56h-73.05v-227.28h72.08l113.64,141.24v-141.24h73.05Z"/>
                <path class="cls-1" d="M1547.82,409.55l-33.66,63.78c4.62,9.49,7.4,22.24,7.4,39.45,0,56.17-29.54,65.59-57.79,65.59s-57.47-9.42-57.47-65.59c0-30.86,8.83-47.55,21.39-56.36l12.98-61.52c-58.54,3.5-107.43,24.15-107.43,117.88,0,105.52,62.34,118.51,130.52,118.51s130.85-12.99,130.85-118.51c0-57.91-18.67-87.92-46.79-103.23Z"/>
              </g>
              <polygon class="cls-1" points="1493.14 466.77 1447.63 466.77 1464.58 386.46 1535.53 386.46 1493.14 466.77"/>
            </g>
          </g>
          <g>
            <path class="cls-1" d="M897.31,733.03h-20.08v-66.86h15.7l26.91,29.07,26.67-29.07h15.61v66.86h-20.16v-36.92l-22.28,23.16-22.36-23.26v37.02Z"/>
            <path class="cls-1" d="M1083.91,733.03v-66.86h59.28v15.89h-39.19v10.27h38.87v14.35h-38.87v10.46h39.19v15.89h-59.28ZM1117.57,645.42h16.83l-15.28,14.73h-10.33l8.78-14.73Z"/>
            <path class="cls-1" d="M1284.33,733.03h-24.72l25.04-33.92-23.17-32.95h24.23l13.42,22.19,14.15-22.19h23.34l-23.01,33.05,24.96,33.82h-24.96l-14.71-23.06-14.56,23.06Z"/>
            <path class="cls-1" d="M1455.82,733.03v-66.86h20.16v66.86h-20.16Z"/>
            <path class="cls-1" d="M1669.31,719.22c-1.27,3.59-3.29,6.51-6.06,8.77-2.76,2.26-6.44,3.91-11.02,4.94-4.58,1.03-10.39,1.55-17.44,1.55s-12.64-.55-17.44-1.64c-4.8-1.1-8.71-2.97-11.75-5.62-3.04-2.65-5.24-6.2-6.63-10.66-1.38-4.46-2.07-10.08-2.07-16.86s.75-12.83,2.23-17.35c1.49-4.52,3.78-8.09,6.87-10.71,3.09-2.62,7.02-4.43,11.79-5.43,4.77-1,10.43-1.5,16.99-1.5s12.16.47,16.63,1.4c4.47.94,8.11,2.48,10.94,4.6,2.81,2.13,4.92,4.9,6.3,8.29,1.38,3.39,2.32,7.54,2.81,12.45h-20.08c-.22-2.13-.69-3.84-1.43-5.13-.73-1.3-1.76-2.31-3.09-3.06-1.33-.74-2.98-1.24-4.96-1.5-1.98-.26-4.35-.39-7.11-.39-3.2,0-5.92.2-8.17.58-2.25.39-4.08,1.21-5.49,2.47-1.41,1.26-2.44,3.1-3.09,5.52-.65,2.43-.97,5.67-.97,9.74s.32,7.01.97,9.4c.65,2.39,1.68,4.23,3.09,5.52,1.41,1.3,3.24,2.15,5.49,2.57,2.25.42,4.97.63,8.17.63,2.76,0,5.16-.15,7.2-.44,2.03-.29,3.74-.86,5.12-1.69,1.38-.84,2.44-2.02,3.17-3.54.73-1.52,1.21-3.5,1.42-5.96h20.16c-.43,5.11-1.29,9.45-2.56,13.03Z"/>
            <path class="cls-1" d="M1812.04,732.84c-4.99-1.1-9.04-2.97-12.15-5.62-3.12-2.65-5.38-6.2-6.79-10.66-1.41-4.46-2.11-10.08-2.11-16.86s.76-12.83,2.27-17.35c1.52-4.52,3.88-8.09,7.07-10.71,3.2-2.62,7.28-4.43,12.24-5.43,4.96-1,10.86-1.5,17.68-1.5s12.81.5,17.77,1.5c4.96,1,9.04,2.81,12.23,5.43,3.2,2.62,5.56,6.19,7.07,10.71,1.52,4.52,2.28,10.3,2.28,17.35s-.71,12.4-2.11,16.86c-1.41,4.46-3.68,8.01-6.79,10.66-3.12,2.65-7.18,4.52-12.2,5.62-5.01,1.09-11.1,1.64-18.25,1.64s-13.23-.55-18.21-1.64ZM1839.44,716.8c2.44-.42,4.39-1.26,5.85-2.52,1.47-1.26,2.51-3.05,3.13-5.38.63-2.33.94-5.4.94-9.21s-.31-7.09-.94-9.45c-.62-2.36-1.66-4.16-3.13-5.43-1.46-1.26-3.41-2.09-5.85-2.47-2.44-.39-5.5-.58-9.19-.58s-6.75.2-9.19.58c-2.44.38-4.39,1.2-5.85,2.42-1.46,1.23-2.51,3.02-3.13,5.38-.62,2.35-.93,5.54-.93,9.54s.31,6.88.93,9.21c.63,2.32,1.67,4.11,3.13,5.38,1.46,1.26,3.41,2.1,5.85,2.52,2.44.42,5.5.63,9.19.63s6.75-.21,9.19-.63Z"/>
          </g>
          <g>
            <path class="cls-1" d="M998.22,44.87v112.3h-35.94v-43h-50.06v43h-36.1V44.87h36.1v43h50.06v-43h35.94Z"/>
            <path class="cls-1" d="M1048.89,71.02v16.85h73.32v26.31h-73.32v16.85h80.06v26.15h-116.16V44.87h116.16v26.15h-80.06Z"/>
            <path class="cls-1" d="M1227.31,114.18h36.74c-4.81,40.11-33.05,45.4-63.85,45.4-33.69,0-64.5-6.42-64.5-58.56s30.8-58.56,64.5-58.56c30.8,0,59.04,5.13,63.85,45.4h-36.74c-3.85-16.2-15.72-19.25-27.11-19.25-13.8,0-28.4,4.49-28.4,32.41s14.6,32.41,28.4,32.41c11.39,0,23.1-3.05,27.11-19.25Z"/>
            <path class="cls-1" d="M1395.66,44.87v112.3h-35.94v-43h-50.06v43h-36.1V44.87h36.1v43h50.06v-43h35.94Z"/>
            <path class="cls-1" d="M1535.46,101.03c0,52.14-30.8,58.56-64.65,58.56s-64.5-6.42-64.5-58.56,30.8-58.56,64.5-58.56,64.65,6.26,64.65,58.56ZM1499.36,101.03c0-27.92-14.6-32.41-28.56-32.41s-28.4,4.49-28.4,32.41,14.6,32.41,28.4,32.41,28.56-4.65,28.56-32.41Z"/>
            <path class="cls-1" d="M1653.84,71.02v16.85h73.32v26.31h-73.32v16.85h80.06v26.15h-116.16V44.87h116.16v26.15h-80.06Z"/>
            <path class="cls-1" d="M1874.36,44.87v112.3h-35.62l-.48-.8-55.67-69.15v69.95h-36.1V44.87h35.62l56.15,69.79V44.87h36.1Z"/>
          </g>
        </g>
        <g>
          <path class="cls-1" d="M740.15,204.94c-12.8-10.31-26-18.79-39.05-25.33-37.37-18.73-74.96-23.19-103.64-13.33-6.25-14.22-17.17-26.09-31.11-33.3-15.22-7.88-32.9-9.67-49.33-5.23l-53.72,19.17-43.41,15.49c9.21-48.08,44.29-96.01,92.92-129.28h227.35v171.82Z"/>
          <path class="cls-1" d="M617.61,236.78l-2.49-9.1-7.6-27.27c19.32-7.53,48.32-3.68,77.65,11.01,18.72,9.38,37.85,23.45,54.99,42.09v154.05c-25.27-32.92-53.8-58.72-76.3-76.42-4.74-3.73-27.79-20.89-47.07-32.72.26-.73.39-1.15.39-1.15,6.58-19,7.1-40.14.44-60.49Z"/>
          <path class="cls-1" d="M536.38,772.74c-38.71,8.86-74.64,22.43-101.82,34.35,32.84-73.29,79.82-178.27,86.03-192.78,13.35-31.22,15.39-57.86,6.06-79.18-6.11-13.97-15.67-22.17-22.71-26.64l11.65-11.65c9.03-9.03,12.79-21.33,11.35-33.12l33.43-30.2c12.88,9.98,55.83,50.5,45.81,140.7l-.1,1.64c-.03,1.36-3.24,125.58-69.71,196.88Z"/>
          <path class="cls-1" d="M236.31,772.71c-49.26-52.06-65.34-132.03-69.77-193.3-3.54-48.98,1.84-113.26,45.99-145.81l33.35,30.12c-1.44,11.79,2.32,24.09,11.35,33.12l11.65,11.65c-7.04,4.47-16.6,12.67-22.71,26.64-9.33,21.32-7.28,47.96,6.06,79.18,6.2,14.5,53.18,119.47,86.02,192.76-27.16-11.91-63.13-25.49-101.94-34.36Z"/>
          <path class="cls-1" d="M281.45,571.19c1.5,2.08,13,10.38,26.87,18.33,19.36,11.09,40.85,23.39,63.47,27.38,5.15,1.18,10.19,1.54,14.62,1.52,4.42.02,9.46-.34,14.62-1.52,22.62-3.99,44.11-16.29,63.47-27.38,13.88-7.95,25.37-16.25,26.87-18.33,0,.07-.02.13-.03.2,2.21-2.74,3.98-5.41,5.4-7.99.15,10.25-2.78,22.7-8.86,36.91-7.09,16.58-70.79,158.78-101.47,227.22-30.68-68.45-94.38-210.64-101.47-227.22-6.07-14.19-8.99-26.64-8.85-36.89,1.41,2.58,3.18,5.24,5.39,7.97,0-.07-.02-.13-.03-.2Z"/>
          <polygon class="cls-1" points="283.7 520.72 283.71 520.72 283.71 520.72 283.7 520.72"/>
          <path class="cls-1" d="M494.02,475.25l-30.07,30.07-75.81-29.06,8.31-35.97,51.55-24.39,46.01,46.02c3.68,3.68,3.68,9.66,0,13.33Z"/>
          <path class="cls-1" d="M464.29,538.14c3.21,2.41,4.06,5.68,4.27,7.51.2,1.71.16,4.79-1.96,7.72-5.76,3.07-11.6,6.42-17.28,9.67-21.17,12.13-43.05,24.66-62.91,24.68-19.86-.02-41.75-12.56-62.91-24.68-5.67-3.25-11.52-6.6-17.28-9.67-2.12-2.93-2.17-6.01-1.96-7.72.22-1.83,1.06-5.09,4.27-7.51l77.89-29.85,77.88,29.85Z"/>
          <path class="cls-1" d="M308.87,505.32l-30.07-30.07c-3.68-3.68-3.68-9.66,0-13.33l46.01-46.02,51.55,24.39,8.32,35.97-75.81,29.06Z"/>
          <path class="cls-1" d="M561.05,320.99l-5.02,3.07-64.73,29.05,62.48-12.68.26,57.7-42.27,38.36-41.11-41.11-9.74-107.12-.03-.33c-.31-3.07,2.58-5.98,6.66-6.65l2.27-.38c25.8-4.32,41.75-16.78,63.81-30.84l32.42-20.66-103.47,7.88c-19.87,3.22-33.93,34.52-32.08,53.58l8.8,67.61-52.89,25.03-52.89-25.03,8.8-67.61c1.85-19.05-12.21-50.35-32.08-53.58l-103.47-7.88,32.42,20.66c22.06,14.06,38.01,26.52,63.81,30.84l2.27.38c4.08.66,6.97,3.58,6.66,6.65l-.03.33-9.74,107.12-41.11,41.11-42.27-38.36.26-57.7,62.48,12.68-64.73-29.05-5.02-3.07c-25.62-15.66-36.92-46.5-27.46-75l.24-.78,16.56-60.5c2.92-10.67,9.99-19.92,19.88-24.87,9.39-4.7,19.98-5.32,29.88-1.73l135.55,49.16,135.55-49.16c9.9-3.59,20.49-2.97,29.88,1.73,9.89,4.95,16.96,14.2,19.88,24.87l16.56,60.5.24.78c9.46,28.5-1.83,59.34-27.46,75Z"/>
          <path class="cls-1" d="M316.87,33.13h139.07c-35.02,33.22-59.85,73.68-69.53,115.45-9.69-41.78-34.51-82.23-69.53-115.45Z"/>
          <path class="cls-1" d="M260.02,33.13c48.63,33.27,83.71,81.2,92.92,129.28l-43.42-15.49-53.72-19.17c-16.44-4.44-34.12-2.65-49.34,5.23-13.94,7.22-24.85,19.08-31.11,33.3-28.68-9.86-66.27-5.4-103.64,13.34-13.05,6.54-26.25,15.02-39.05,25.33V33.13h227.35Z"/>
          <path class="cls-1" d="M155.65,297.27s.13.42.39,1.15c-19.28,11.83-42.33,28.99-47.07,32.72-22.51,17.7-51.04,43.5-76.3,76.42v-154.05c17.14-18.63,36.26-32.71,54.99-42.09,29.32-14.69,58.32-18.55,77.65-11.01l-7.6,27.27-2.49,9.1c-6.66,20.35-6.14,41.49.44,60.49Z"/>
          <path class="cls-1" d="M32.66,659.18v-185.85c39.42-75.77,110.83-125.46,141.6-144.3,4.23,4.76,8.99,9.14,14.25,13.05l-.29,65.13c-43.27,33.9-63.02,94.02-57.17,174.77,3.95,54.63,16.65,123.05,51.38,178.76l-82.64-18.29c-39.52-8.74-67.12-42.99-67.12-83.27Z"/>
          <path class="cls-1" d="M668.22,743.52l-78.37,17.34c47.57-76.73,51.51-172.3,51.8-183.51,11.04-101.83-36.42-152.88-57.05-169.96l-.29-65.32c5.25-3.91,10.01-8.29,14.25-13.06,30.77,18.84,102.18,68.54,141.6,144.3v180.95c0,43.17-29.58,79.87-71.93,89.25Z"/>
        </g>
      </g>
    </g>
  </g>
</svg>